# xmcd
#
# Track frame offsets:
#	150
#	11070
#	28000
#	42220
#	51997
#	71602
#	91485
#	108167
#	123275
#	138837
#	153097
#	168762
#	185712
#	199797
#
# Disc length: 2912 seconds
#
# Revision: 2
# Processed by: cddbd v1.5.1PL2 Copyright (c) Steve Scherf et al.
# Submitted via: audiograbber 1.83.01
#
DISCID=b50b5e0e
DTITLE=Vários - Fonograma
DYEAR=1900
DGENRE=
TTITLE0=Nilton Cesar - A Namorada Que Sonhei
TTITLE1=Os Incríveis - O Milionário
TTITLE2=Pholhas - My Mistake
TTITLE3=Vanusa - Mensagem
TTITLE4=Antonio Marcos - O Homem de Nazareth
TTITLE5=Terry Winter - Our Love
TTITLE6=Barros de Alencar - Meu Amor
TTITLE7=Sergio Reis - O Menino da Porteira
TTITLE8=Carmem Silva - Adeus Solidão
TTITLE9=Dave Maclean - We Said Goodbye
TTITLE10=Francisco Cuoco - Soleado
TTITLE11=Heleno - Não São Palavras Lindas
TTITLE12=Vanusa - Pra Nunca Mais Chorar
TTITLE13=Paulo Henrique - Uma Lágrima
EXTD=\n\n
EXTT0=
EXTT1=
EXTT2=
EXTT3=
EXTT4=
EXTT5=
EXTT6=
EXTT7=
EXTT8=
EXTT9=
EXTT10=
EXTT11=
EXTT12=
EXTT13=
PLAYORDER=
